PathFileType	4	(X/Y/Z)	C:/Users/opensim2020/Desktop/walking_exp_matlab/subject02_walking06_straight_04.trc																																																																																																																									
DataRate	CameraRate	NumFrames	NumMarkers	Units	OrigDataRate	OrigDataStartFrame	OrigNumFrames																																																																																																																					
100	100	4	41	mm	100	2682	216																																																																																																																					
Frame#	Time	LFHD			RFHD			LBHD			RBHD			C7			T10			CLAV			STRN			RBAK			LSHO			LUPA			LELB			LFRM			LWRA			LWRB			LFIN			RSHO			RUPA			RELB			RFRM			RWRA			RWRB			RFIN			LASI			RASI			LPSI			RPSI			LTHI			LKNE			LTIB			LANK			LHEE			LTOE			RTHI			RKNE			RTIB			RANK			RHEE			RTOE			*39			*40		
		X1	Y1	Z1	X2	Y2	Z2	X3	Y3	Z3	X4	Y4	Z4	X5	Y5	Z5	X6	Y6	Z6	X7	Y7	Z7	X8	Y8	Z8	X9	Y9	Z9	X10	Y10	Z10	X11	Y11	Z11	X12	Y12	Z12	X13	Y13	Z13	X14	Y14	Z14	X15	Y15	Z15	X16	Y16	Z16	X17	Y17	Z17	X18	Y18	Z18	X19	Y19	Z19	X20	Y20	Z20	X21	Y21	Z21	X22	Y22	Z22	X23	Y23	Z23	X24	Y24	Z24	X25	Y25	Z25	X26	Y26	Z26	X27	Y27	Z27	X28	Y28	Z28	X29	Y29	Z29	X30	Y30	Z30	X31	Y31	Z31	X32	Y32	Z32	X33	Y33	Z33	X34	Y34	Z34	X35	Y35	Z35	X36	Y36	Z36	X37	Y37	Z37	X38	Y38	Z38	X39	Y39	Z39	X40	Y40	Z40	X41	Y41	Z41
																																																																																																																												
28	0.27	-486.63043	1751.33875	988.32397	-491.16281	1737.69104	1132.25537	-611.81091	1669.02771	977.52661	-629.2439	1653.0835	1120.33435	-667.55841	1535.77161	1054.29797	-727.61523	1262.79199	1073.59912	-530.03198	1463.83337	1044.90845	-482.07547	1291.15991	1061.55847	-728.13922	1367.56421	1127.73511	-597.59985	1501.01257	874.27356	-621.0545	1298.81335	799.35474	-636.34711	1159.875	791.9881	-641.05853	1029.95068	775.54602	-596.16644	897.27002	796.76923	-644.51526	907.16541	768.70844	-634.19794	841.8017	760.33398	-588.2616	1509.15906	1240.2511	-605.3241	1320.19922	1336.67151	-583.40387	1173.69678	1353.27905	-545.58777	1059.64514	1369.01465	-492.40097	936.41211	1345.16626	-533.62646	930.88239	1383.70776	-491.79709	871.71375	1382.745	-503.9122	1000.75763	938.45984	-494.39304	986.35919	1193.224	-708.97992	1041.43335	1023.34149	-708.92853	1043.52881	1138.75146	-497.48981	694.15155	876.13177	-465.42627	502.237	910.26678	-544.07843	330.147	939.53564	-565.17426	110.89355	981.49127	-584.37	88.28454	1044.34814	-433.5528	52.43139	930.60492	-573.89203	679.16858	1253.96887	-587.34888	469.17365	1211.51746	-641.25134	287.71216	1220.54712	-675.50403	97.20238	1182.38098	-716.29523	44.62299	1128.82275	-525.69257	40.47361	1194.12537	-595.12225	1813.6814	1072.38269	-2845.21045	1033.74756	3360.16406
29	0.28	-476.94547	1750.7052	988.55536	-480.99457	1737.3855	1132.44507	-602.37738	1668.8446	978.32025	-619.3595	1653.17188	1121.29114	-657.95837	1535.56262	1055.71606	-718.28442	1262.64832	1074.90222	-520.52979	1463.4646	1045.90283	-472.61853	1290.80029	1063.13696	-718.72083	1367.48938	1129.89355	-588.95197	1500.30579	875.48755	-616.66156	1298.89722	799.79065	-633.48822	1160.44617	791.77344	-641.02863	1030.7688	774.35071	-598.24609	897.40643	794.20911	-646.90448	908.06067	766.48486	-637.35059	842.57483	757.5639	-578.25616	1509.28088	1241.31421	-593.15851	1320.5365	1338.25354	-568.77289	1174.29883	1355.66724	-528.12048	1061.29517	1370.96411	-472.11615	939.13135	1346.12	-513.14282	932.5661	1385.07458	-469.50684	874.6687	1383.4613	-494.00925	1000.83972	940.216	-486.43747	984.82971	1195.0592	-699.74194	1041.66663	1023.78296	-700.48572	1043.3396	1139.13013	-486.4104	695.0517	877.36902	-453.69333	502.03513	912.64136	-523.57574	325.19983	940.54156	-532.06512	104.3399	980.54022	-550.38184	80.85835	1042.80249	-397.2626	52.96838	929.91296	-568.43359	678.67065	1254.28613	-584.36664	468.69406	1212.0188	-639.67438	287.68134	1220.67346	-675.19275	97.34473	1182.27979	-716.1651	44.85288	1128.66516	-525.604	40.44607	1194.20715	-585.0191	1813.58337	1072.85718	-2845.17578	1033.96313	3360.28345
30	0.29	-466.69644	1749.86609	989.18433	-470.86484	1736.93884	1132.70557	-592.90961	1668.03235	979.04224	-609.47882	1653.02551	1122.1095	-648.33319	1535.24805	1056.9834	-708.63654	1262.24744	1075.93945	-511.05081	1462.95544	1046.74805	-463.12698	1290.31189	1064.50977	-709.12354	1367.48535	1131.36304	-580.26501	1499.51868	876.68225	-611.80212	1299.10681	800.37878	-630.55096	1161.02698	791.44202	-640.49402	1031.56165	773.00623	-600.42859	897.28662	791.44611	-648.97272	909.14966	764.34015	-640.16125	843.53906	754.89136	-568.25757	1509.13452	1242.29773	-581.17236	1320.71362	1339.94006	-554.19067	1174.802	1357.84033	-510.71014	1062.40076	1372.16577	-451.95221	942.11835	1346.97424	-492.64853	934.27222	1386.01196	-447.29224	877.75031	1384.21082	-484.03128	1000.66541	941.77032	-477.64218	983.78052	1196.88403	-690.50677	1041.66956	1024.19678	-691.92865	1042.9762	1139.49219	-475.46915	695.25092	878.56696	-442.24625	501.67941	914.85529	-503.22018	320.50537	940.79297	-499.24893	98.88268	978.77386	-516.90771	74.06634	1040.68933	-361.52008	54.94375	928.56995	-563.10339	678.08838	1254.70374	-581.16827	468.07614	1212.10901	-637.92731	287.6235	1220.7478	-674.87354	97.53827	1182.1803	-716.06592	45.07666	1128.4635	-525.66003	40.35058	1194.27002	-574.82758	1813.26489	1073.16553	-2845.22803	1033.82397	3360.30176
31	0.3	-457.38382	1748.95227	988.76691	-460.72855	1736.33398	1132.85522	-583.90912	1667.82971	979.45789	-599.59576	1652.80396	1122.83948	-638.81458	1534.74658	1058.10779	-699.35663	1261.77661	1076.69092	-501.53476	1462.34656	1047.59729	-453.67487	1289.71057	1065.84985	-699.64655	1367.18054	1132.77393	-571.65912	1498.67346	877.77875	-606.71997	1299.11365	801.06311	-627.59711	1161.64453	791.07184	-639.55011	1032.52148	771.53644	-602.20349	897.38361	789.0365	-650.565	910.25995	762.26221	-642.92334	844.61188	752.29895	-558.3277	1508.80444	1242.77576	-569.17993	1320.7854	1341.24695	-539.70374	1175.23022	1359.90784	-493.60553	1063.86841	1374.12244	-431.79526	945.16205	1347.76917	-472.00336	935.91016	1386.77441	-425.31357	880.78082	1384.63208	-473.97836	1000.17798	943.0365	-469.31674	982.23718	1198.36609	-680.99127	1041.12158	1024.40857	-683.32147	1042.4198	1139.65369	-464.87082	695.00812	879.7688	-430.86267	501.10349	916.73871	-482.43317	316.16489	940.63025	-466.75632	94.32798	976.54956	-483.05365	68.18729	1038.24133	-326.4379	58.23137	926.76843	-557.70886	677.34772	1254.98621	-577.90747	467.51611	1212.4281	-636.17297	287.59042	1220.83447	-674.63763	97.79012	1181.9458	-715.90686	45.32455	1128.21265	-525.61584	40.24985	1194.42358	-564.6911	1812.90833	1073.47339	-2845.79443	1033.92505	3357.39526
